<svg version="1.1" id="Layer_1" xmlns="http://www.w3.org/2000/svg" xmlns:xlink="http://www.w3.org/1999/xlink" x="0px" y="0px"
	 width="100%" viewBox="0 0 240 240" enable-background="new 0 0 240 240" xml:space="preserve">
<path fill="#32495E" opacity="1.000000" stroke="none" 
	d="
M0.999999,231.000000 
	C1.000000,227.969406 1.000000,224.938812 1.297792,221.292786 
	C3.002159,218.869766 4.446020,217.089813 5.809004,215.249954 
	C12.535073,206.170654 19.239723,197.075500 26.210421,187.771362 
	C31.361618,179.465775 36.254326,171.374756 41.389801,163.034683 
	C45.733337,154.102081 49.834106,145.418533 54.101833,136.583069 
	C54.374771,136.004944 54.480759,135.578720 54.738945,134.885529 
	C54.928497,134.417099 54.965847,134.215652 55.216690,133.727768 
	C61.163723,118.633385 65.358734,103.409286 66.555763,87.546967 
	C67.916412,69.516518 65.621315,52.025703 57.108025,35.372070 
	C51.559605,24.915758 45.869308,14.946917 36.830437,7.268804 
	C36.776672,7.156556 36.548351,7.057417 36.541367,6.913208 
	C36.438465,6.570930 36.280941,6.482012 35.869530,6.214151 
	C35.350777,5.314421 35.024307,4.702785 35.062897,4.111708 
	C38.226437,5.870387 40.915321,7.824628 43.842457,9.309062 
	C56.244801,15.598639 68.768875,21.649103 81.146973,27.985228 
	C89.172676,32.093433 96.949211,36.687897 104.969231,40.807838 
	C116.972305,46.973915 129.091309,52.914330 140.780106,58.982708 
	C139.417282,59.184040 138.436523,59.492397 137.453247,59.500603 
	C130.005249,59.562794 130.001053,59.544445 130.000702,67.361786 
	C129.999115,102.925774 130.101288,138.490341 129.895050,174.053146 
	C129.862671,179.635757 130.270889,184.151947 136.427948,185.859161 
	C129.116699,189.633331 121.991997,193.066238 114.957794,196.675552 
	C97.756508,205.501678 80.632790,214.479431 63.406876,223.256866 
	C53.680798,228.212769 43.806358,232.876999 34.017452,237.710480 
	C31.969515,238.721680 30.003674,239.899155 28.000000,241.000000 
	C26.933331,241.000000 25.866661,241.000000 24.362709,240.820618 
	C23.616953,240.760834 23.308477,240.880417 23.000000,241.000000 
	C18.643101,241.000000 14.286201,241.000000 9.501686,240.647644 
	C6.382712,237.196854 3.691355,234.098419 0.999999,231.000000 
z"/>
<path fill="#000000" opacity="1.000000" stroke="none" 
	d="
M141.160995,58.950729 
	C129.091309,52.914330 116.972305,46.973915 104.969231,40.807838 
	C96.949211,36.687897 89.172676,32.093433 81.146973,27.985228 
	C68.768875,21.649103 56.244801,15.598639 43.842457,9.309062 
	C40.915321,7.824628 38.226437,5.870387 34.770508,3.902146 
	C33.408710,2.781350 32.704357,1.890675 32.000000,1.000000 
	C101.571907,1.000000 171.143814,1.000000 241.000000,1.000000 
	C241.000000,38.353748 241.000000,75.708214 240.653290,113.533005 
	C238.217499,111.936386 236.415192,109.410652 233.984009,107.891045 
	C227.458267,103.812126 220.743988,100.013008 213.953964,96.384636 
	C206.497269,92.400009 198.872360,88.730125 191.167114,84.677185 
	C190.672699,84.280823 190.331924,84.130356 189.784241,83.922989 
	C189.577347,83.866081 189.175201,83.716164 188.954559,83.447571 
	C172.876282,75.102898 157.018646,67.026810 141.160995,58.950729 
z"/>
<path fill="#000000" opacity="1.000000" stroke="none" 
	d="
M28.468658,241.000000 
	C30.003674,239.899155 31.969515,238.721680 34.017452,237.710480 
	C43.806358,232.876999 53.680798,228.212769 63.406876,223.256866 
	C80.632790,214.479431 97.756508,205.501678 114.957794,196.675552 
	C121.991997,193.066238 129.116699,189.633331 136.642792,185.734863 
	C137.396561,185.215500 137.707779,185.081421 138.282990,184.903214 
	C138.770920,184.587845 138.994904,184.316620 139.571960,184.012451 
	C153.899231,177.016373 167.892593,170.091263 181.831848,163.058929 
	C184.721939,161.600891 187.411194,159.744766 190.536545,158.010162 
	C196.901871,154.862823 203.010300,151.933960 208.926910,148.658585 
	C220.249130,142.390717 231.689850,136.262085 241.000000,127.000000 
	C241.000000,164.949112 241.000000,202.898224 241.000000,241.000000 
	C170.312515,241.000000 99.624908,241.000000 28.468658,241.000000 
z"/>
<path fill="#FDA70C" opacity="1.000000" stroke="none" 
	d="
M31.531727,1.000000 
	C32.704357,1.890675 33.408710,2.781350 34.405449,3.881587 
	C35.024307,4.702785 35.350777,5.314421 35.897858,6.343805 
	C36.213531,6.930176 36.356827,7.028797 36.548351,7.057417 
	C36.548351,7.057417 36.776672,7.156556 36.859070,7.618691 
	C39.969414,15.252602 43.693913,22.221462 45.856575,29.645309 
	C48.849129,39.917961 50.666172,50.533054 52.978264,61.469925 
	C52.271221,73.937271 51.572521,85.936203 50.676041,98.242447 
	C45.975269,111.017776 41.472267,123.485794 36.734631,136.198532 
	C32.627022,143.219849 28.754053,149.996445 24.572147,156.911469 
	C22.770725,158.804779 21.290667,160.570389 19.783583,162.312622 
	C13.526830,169.545578 7.261922,176.771500 1.000002,184.000000 
	C1.000000,128.312439 1.000000,72.624878 1.308166,16.384838 
	C1.410889,15.554908 1.205444,15.277453 1.000000,15.000000 
	C1.000000,14.250000 1.000000,13.500000 1.256603,12.702312 
	C5.343539,9.238399 9.186379,5.835850 12.973810,2.372704 
	C13.206435,2.159997 13.001402,1.468648 13.000000,1.000000 
	C19.021152,1.000000 25.042303,1.000000 31.531727,1.000000 
z"/>
<path fill="#2F3E58" opacity="1.000000" stroke="none" 
	d="
M241.000000,126.536819 
	C231.689850,136.262085 220.249130,142.390717 208.926910,148.658585 
	C203.010300,151.933960 196.901871,154.862823 190.161804,157.912949 
	C188.296860,155.741699 186.181961,153.618118 186.154358,151.467728 
	C185.898590,131.551605 185.884109,111.629311 186.143112,91.713272 
	C186.177933,89.034882 188.117599,86.381256 189.175201,83.716164 
	C189.175201,83.716164 189.577347,83.866081 189.975037,84.120300 
	C190.688736,84.557381 191.004745,84.740242 191.320755,84.923096 
	C198.872360,88.730125 206.497269,92.400009 213.953964,96.384636 
	C220.743988,100.013008 227.458267,103.812126 233.984009,107.891045 
	C236.415192,109.410652 238.217499,111.936386 240.653290,114.001663 
	C241.000000,118.024544 241.000000,122.049088 241.000000,126.536819 
z"/>
<path fill="#D38F03" opacity="1.000000" stroke="none" 
	d="
M1.000002,184.468658 
	C7.261922,176.771500 13.526830,169.545578 19.783583,162.312622 
	C21.290667,160.570389 22.770725,158.804779 24.605570,157.373642 
	C24.791805,159.495636 24.426968,161.304214 24.515226,163.090408 
	C24.925446,171.392303 25.461142,179.688004 25.951931,187.985931 
	C19.239723,197.075500 12.535073,206.170654 5.809004,215.249954 
	C4.446020,217.089813 3.002159,218.869766 1.297792,220.838669 
	C1.000000,208.979111 1.000000,196.958206 1.000002,184.468658 
z"/>
<path fill="#000001" opacity="1.000000" stroke="none" 
	d="
M12.520824,1.000000 
	C13.001402,1.468648 13.206435,2.159997 12.973810,2.372704 
	C9.186379,5.835850 5.343539,9.238399 1.256603,12.327312 
	C1.000000,8.408027 1.000000,4.816054 1.000000,1.000000 
	C4.678767,1.000000 8.360208,1.000000 12.520824,1.000000 
z"/>
<path fill="#000000" opacity="1.000000" stroke="none" 
	d="
M0.999999,231.486572 
	C3.691355,234.098419 6.382712,237.196854 9.037035,240.647644 
	C6.405432,241.000000 3.810863,241.000000 1.000000,241.000000 
	C1.000000,237.992889 1.000000,234.983017 0.999999,231.486572 
z"/>
<path fill="#000001" opacity="1.000000" stroke="none" 
	d="
M1.000000,15.250000 
	C1.205444,15.277453 1.410889,15.554908 1.308166,15.916181 
	C1.000000,16.000000 1.000000,15.500000 1.000000,15.250000 
z"/>
<path fill="#000000" opacity="1.000000" stroke="none" 
	d="
M23.250000,241.000000 
	C23.308477,240.880417 23.616953,240.760834 23.962715,240.820618 
	C24.000000,241.000000 23.500000,241.000000 23.250000,241.000000 
z"/>
<path fill="#30445B" opacity="1.000000" stroke="none" 
	d="
M188.954575,83.447571 
	C188.117599,86.381256 186.177933,89.034882 186.143112,91.713272 
	C185.884109,111.629311 185.898590,131.551605 186.154358,151.467728 
	C186.181961,153.618118 188.296860,155.741699 189.818268,157.974915 
	C187.411194,159.744766 184.721939,161.600891 181.831848,163.058929 
	C167.892593,170.091263 153.899231,177.016373 139.348236,184.130310 
	C138.520615,184.503189 138.269821,184.725281 138.019012,184.947357 
	C137.707779,185.081421 137.396561,185.215500 136.870483,185.473846 
	C130.270889,184.151947 129.862671,179.635757 129.895050,174.053146 
	C130.101288,138.490341 129.999115,102.925774 130.000702,67.361786 
	C130.001053,59.544445 130.005249,59.562794 137.453247,59.500603 
	C138.436523,59.492397 139.417282,59.184040 140.780106,58.982712 
	C157.018646,67.026810 172.876282,75.102898 188.954575,83.447571 
z"/>
<path fill="#D78910" opacity="1.000000" stroke="none" 
	d="
M50.873817,97.935127 
	C51.572521,85.936203 52.271221,73.937271 53.308052,61.327873 
	C54.027847,60.205708 54.734341,59.697548 54.739960,59.181759 
	C54.786217,54.934074 54.364544,50.653160 54.760666,46.445965 
	C55.101589,42.825066 56.330265,39.287750 57.166416,35.713478 
	C65.621315,52.025703 67.916412,69.516518 66.555763,87.546967 
	C65.358734,103.409286 61.163723,118.633385 55.092453,133.366943 
	C54.170422,131.123947 53.140781,128.967285 53.082134,126.784546 
	C52.874611,119.061005 53.135750,111.324394 52.900810,103.602425 
	C52.842762,101.694534 51.581806,99.823242 50.873817,97.935127 
z"/>
<path fill="#D68B0A" opacity="1.000000" stroke="none" 
	d="
M50.676041,98.242447 
	C51.581806,99.823242 52.842762,101.694534 52.900810,103.602425 
	C53.135750,111.324394 52.874611,119.061005 53.082134,126.784546 
	C53.140781,128.967285 54.170422,131.123947 54.878963,133.653381 
	C54.965847,134.215652 54.928497,134.417099 54.616928,135.062683 
	C54.206764,135.916214 54.070824,136.325607 53.934883,136.735001 
	C49.834106,145.418533 45.733337,154.102081 41.135201,162.740051 
	C39.758926,160.349045 38.342373,158.056686 38.104576,155.647980 
	C37.459099,149.109604 37.313221,142.521942 36.969273,135.953812 
	C41.472267,123.485794 45.975269,111.017776 50.676041,98.242447 
z"/>
<path fill="#D48E06" opacity="1.000000" stroke="none" 
	d="
M36.734634,136.198532 
	C37.313221,142.521942 37.459099,149.109604 38.104576,155.647980 
	C38.342373,158.056686 39.758926,160.349045 40.892433,162.989105 
	C36.254326,171.374756 31.361618,179.465775 26.210421,187.771362 
	C25.461142,179.688004 24.925446,171.392303 24.515226,163.090408 
	C24.426968,161.304214 24.791805,159.495636 24.914505,157.235199 
	C28.754053,149.996445 32.627022,143.219849 36.734634,136.198532 
z"/>
<path fill="#D68B0C" opacity="1.000000" stroke="none" 
	d="
M57.108025,35.372070 
	C56.330265,39.287750 55.101589,42.825066 54.760666,46.445965 
	C54.364544,50.653160 54.786217,54.934074 54.739960,59.181759 
	C54.734341,59.697548 54.027847,60.205708 53.316391,60.859455 
	C50.666172,50.533054 48.849129,39.917961 45.856575,29.645309 
	C43.693913,22.221462 39.969414,15.252602 36.912834,7.730939 
	C45.869308,14.946917 51.559605,24.915758 57.108025,35.372070 
z"/>
<path fill="#D78910" opacity="1.000000" stroke="none" 
	d="
M54.101837,136.583069 
	C54.070824,136.325607 54.206764,135.916214 54.464725,135.329666 
	C54.480759,135.578720 54.374771,136.004944 54.101837,136.583069 
z"/>
<path fill="#D68B0C" opacity="1.000000" stroke="none" 
	d="
M36.541367,6.913208 
	C36.356827,7.028797 36.213531,6.930176 36.090145,6.631899 
	C36.280941,6.482012 36.438465,6.570930 36.541367,6.913208 
z"/>
<path fill="#30445B" opacity="1.000000" stroke="none" 
	d="
M191.167114,84.677185 
	C191.004745,84.740242 190.688736,84.557381 190.181946,84.177208 
	C190.331924,84.130356 190.672699,84.280823 191.167114,84.677185 
z"/>
<path fill="#32495E" opacity="1.000000" stroke="none" 
	d="
M138.282990,184.903229 
	C138.269821,184.725281 138.520615,184.503189 138.995148,184.163254 
	C138.994904,184.316620 138.770920,184.587845 138.282990,184.903229 
z"/>
</svg>